# xmcd
#
# Track frame offsets:
#	150
#	17473
#	39408
#	61071
#	81217
#	102718
#	122463
#	141796
#	161058
#	182544
#	202581
#
# Disc length: 2976 seconds
#
# Revision: 4
# Processed by: cddbd v1.5.2PL0 Copyright (c) Steve Scherf et al.
# Submitted via: EasyCDDAExtractor 15.3.0.1
#
DISCID=820b9e0b
DTITLE=Jerry Rivera - Canto A Mi Idolo... Frankie Ruiz
DYEAR=2003
DGENRE=Latin
TTITLE0=Separemos Nuestras Vidas
TTITLE1=El Camionero
TTITLE2=La Cura
TTITLE3=Quiero Llenarte
TTITLE4=Desnudate Mujer
TTITLE5=Mi Libertad
TTITLE6=Tu Eres
TTITLE7=Para Darte Fuego
TTITLE8=Bailando
TTITLE9=Puerto Rico
TTITLE10=Mi Libertad (Participacion Especial De Voltio) (Bonus Track)
EXTD=YEAR: 2003
EXTT0=
EXTT1=
EXTT2=
EXTT3=
EXTT4=
EXTT5=
EXTT6=
EXTT7=
EXTT8=
EXTT9=
EXTT10=
PLAYORDER=
